# xmcd
#
# Track frame offsets: 
#        150
#        20163
#        42056
#        56221
#        78438
#        81694
#        100000
#        115349
#        140579
#        150087
#        165840
#
# Disc length: 2502 seconds
#
# Revision: 0
# Processed by: cddbd v1.5.2PL0 Copyright (c) Steve Scherf et al.
# Submitted via: ExactAudioCopy v0.95b4
#
DISCID=8409c40b
DTITLE=Yusuf Islam - An other Cup
DYEAR=2006
DGENRE=Soul
TTITLE0=Midday
TTITLE1=Heaven - Where true Love goes
TTITLE2=Maybe ther`s a World
TTITLE3=One Day at a Time
TTITLE4=When Butterflies leave
TTITLE5=In the End
TTITLE6=Don't Let Me Be Misunderstood
TTITLE7=I Think I See The Light
TTITLE8=Whispers From A Spiritual Garden
TTITLE9=The Beloved
TTITLE10=Golden Sands
EXTD=
EXTT0=
EXTT1=
EXTT2=
EXTT3=
EXTT4=
EXTT5=
EXTT6=
EXTT7=
EXTT8=
EXTT9=
EXTT10=
PLAYORDER=
